<?xml version="1.0" encoding="UTF-8"?>
<svg version="1.1" xmlns="http://www.w3.org/2000/svg" width="500" height="500">
    <path
        d="M0 0 C3.63 0 7.26 0 11 0 C11.16267885 12.57016871 11.28681688 25.14008419 11.3626852 37.7110939 C11.39911111 43.54931249 11.44846699 49.38680727 11.52807617 55.22460938 C11.60451531 60.86569004 11.6460702 66.50607754 11.6641407 72.14763641 C11.67700694 74.29254813 11.70213149 76.43742483 11.7401104 78.58203888 C11.95320898 91.12189531 11.84231844 99.7529257 4 110 C3.07509527 111.62967357 2.1748167 113.27386103 1.3125 114.9375 C-5.46239539 127.45475325 -12.59979105 139.7838317 -19.9831543 151.95117188 C-22.12978996 155.50245712 -24.16700364 159.09163838 -26.125 162.75 C-34.64002441 178.5466748 -34.64002441 178.5466748 -39 180 C-41.4892158 178.93650501 -43.80733755 177.83016927 -46.1875 176.5625 C-47.16879883 176.05493164 -47.16879883 176.05493164 -48.16992188 175.53710938 C-49.78459299 174.70030902 -51.39292763 173.85130254 -53 173 C-53.27328125 173.72960937 -53.5465625 174.45921875 -53.828125 175.2109375 C-54.9472542 177.874465 -56.22620293 180.17545525 -57.75 182.625 C-59.86043702 186.08306547 -61.88573713 189.56129374 -63.8125 193.125 C-69.61024467 203.84706288 -75.63032112 214.43491763 -81.83789062 224.92456055 C-86.50586832 232.82538004 -91.07597417 240.78256135 -95.64697266 248.73974609 C-96.25331543 249.79371582 -96.8596582 250.84768555 -97.484375 251.93359375 C-98.36319336 253.4647583 -98.36319336 253.4647583 -99.25976562 255.02685547 C-101.40478076 258.69155725 -103.65445345 262.2864791 -105.94238281 265.86352539 C-107.29576409 268.20014792 -107.29576409 268.20014792 -107 272 C-104.33560711 274.04153009 -104.33560711 274.04153009 -101 275.75 C-99.88625 276.36359375 -98.7725 276.9771875 -97.625 277.609375 C-96.75875 278.06828125 -95.8925 278.5271875 -95 279 C-95.5860974 283.05872453 -96.88384408 285.87746452 -99 289.375 C-99.62777344 290.42300781 -100.25554687 291.47101563 -100.90234375 292.55078125 C-101.60112072 293.70078938 -102.30035718 294.85051843 -103 296 C-104.1406278 297.88571128 -105.27926749 299.77259186 -106.41601562 301.66064453 C-107.15002401 302.87826065 -107.88675222 304.09424389 -108.62695312 305.30810547 C-110.78079947 308.86590394 -112.81628521 312.47161438 -114.796875 316.12890625 C-118.30995505 322.61249499 -121.99253823 328.99379005 -125.6875 335.375 C-126.35753343 336.53509182 -127.02745577 337.69524782 -127.69726562 338.85546875 C-129.46057642 341.90619176 -131.2238985 344.95670554 -133 348 C-133.47429443 348.88437744 -133.94858887 349.76875488 -134.43725586 350.67993164 C-136.19052672 353.28285822 -137.65853404 354.35973047 -140.3671875 355.91015625 C-141.2425415 356.41909424 -142.11789551 356.92803223 -143.01977539 357.45239258 C-143.96199951 357.98372803 -144.90422363 358.51506348 -145.875 359.0625 C-147.33764282 359.90687622 -147.33764282 359.90687622 -148.82983398 360.76831055 C-151.87946343 362.5249462 -154.93855465 364.26405309 -158 366 C-159.8896277 367.07759071 -161.77896082 368.1556982 -163.66796875 369.234375 C-166.34798713 370.76427084 -169.02850629 372.29319451 -171.71191406 373.81713867 C-177.61814595 377.17887953 -183.40900248 380.68141384 -189.17578125 384.27734375 C-192.70632062 386.43082627 -196.31362106 388.40417525 -199.9609375 390.3515625 C-202.35963317 391.65265449 -204.73337636 392.98098354 -207.1015625 394.3359375 C-207.81787842 394.74465088 -208.53419434 395.15336426 -209.2722168 395.57446289 C-210.68987714 396.38503405 -212.10549405 397.19919215 -213.51879883 398.01733398 C-216.65976427 399.80790534 -219.46845682 401.23850344 -223 402 C-225.44194956 398.43882356 -226.56915614 396.31360443 -226 392 C-224.74074203 389.25928473 -223.16004368 386.74217262 -221.5625 384.1875 C-220.63528793 382.66102444 -219.70953807 381.13365987 -218.78515625 379.60546875 C-218.08156982 378.44990479 -218.08156982 378.44990479 -217.36376953 377.27099609 C-215.33296202 373.88922534 -213.41399141 370.4487999 -211.5 367 C-208.00196386 360.72923417 -204.38818726 354.5341994 -200.73046875 348.35546875 C-197.9247011 343.60390557 -195.18947158 338.81824061 -192.5 334 C-189.000264 327.73015494 -185.38821509 321.53424642 -181.73046875 315.35546875 C-178.92469965 310.60390311 -176.18956679 305.81818884 -173.5 301 C-170.46365647 295.56257868 -167.35894863 290.17223565 -164.1875 284.8125 C-160.44690752 278.48810897 -156.76614671 272.13217507 -153.125 265.75 C-152.62540771 264.87448486 -152.12581543 263.99896973 -151.61108398 263.09692383 C-149.01970709 258.55174748 -146.43407523 254.00334271 -143.8515625 249.453125 C-139.01083353 240.93641067 -134.16523718 232.45208597 -128.9140625 224.1796875 C-126.70432814 220.50882266 -124.67799241 216.75625315 -122.63769531 212.98925781 C-119.8626582 207.92402907 -116.95889808 202.93400777 -114.0625 197.9375 C-113.07309604 196.22644791 -112.08369404 194.5153947 -111.09440613 192.80427551 C-110.07443404 191.04049242 -109.05388862 189.2770422 -108.03320312 187.51367188 C-104.78857666 181.90748454 -101.55018326 176.29769931 -98.3125 170.6875 C-97.68964111 169.60839355 -97.06678223 168.52928711 -96.42504883 167.41748047 C-92.51671024 160.64193171 -88.6262079 153.85647446 -84.75 147.0625 C-69.53692534 120.41235804 -69.53692534 120.41235804 -63.6875 111 C-60.8327252 106.4057774 -58.17142362 101.7529076 -55.61328125 96.98828125 C-50.27516518 87.10048756 -44.66187596 77.37033122 -38.93798828 67.7019043 C-35.60702144 62.06395335 -32.35880955 56.38162329 -29.125 50.6875 C-25.05413393 43.52348679 -20.88672425 36.42709935 -16.625 29.375 C-12.57330875 22.66977727 -8.67840503 15.91863015 -5 9 C-3.34267839 5.99472348 -1.6708867 2.99776731 0 0 Z "
        fill="#FFFFFF" transform="translate(228,33)" />
    <path
        d="M0 0 C1.61596244 -0.05796261 3.23251866 -0.09955109 4.84915161 -0.13407898 C5.74927538 -0.15896739 6.64939915 -0.1838558 7.57679939 -0.20949841 C10 0 10 0 12.41357422 2.14526367 C12.9551416 3.14275635 13.49670898 4.14024902 14.0546875 5.16796875 C14.68262207 6.27809326 15.31055664 7.38821777 15.95751953 8.53198242 C16.59727702 9.75017477 17.23642278 10.96868854 17.875 12.1875 C18.56389819 13.43342019 19.2564888 14.67730544 19.95263672 15.91918945 C21.34938785 18.42292525 22.72557946 20.93619562 24.08398438 23.4609375 C26.21313269 27.41196715 28.44015018 31.30322318 30.68383789 35.19018555 C32.13808469 37.71017378 33.57606318 40.23891287 35.01171875 42.76953125 C38.27335457 48.49890222 41.6052443 54.18650703 44.9375 59.875 C49.57440528 67.79277054 54.13381266 75.74872304 58.625 83.75 C63.26671911 92.0184151 68.06508476 100.17559598 72.97314453 108.28833008 C75.88528929 113.11123514 78.68025109 117.96779444 81.3359375 122.9375 C88.18812743 135.54810306 95.50140994 147.90063604 102.92041016 160.18359375 C105.84780762 165.04228052 108.6621293 169.93388232 111.3359375 174.9375 C118.18608007 187.54433515 125.49687669 199.89340922 132.91381836 212.17260742 C135.90705369 217.14049493 138.79374024 222.14127182 141.52734375 227.2578125 C146.86342771 237.19396883 152.52704121 246.94641309 158.27294922 256.6496582 C161.04064877 261.33489428 163.73004328 266.05707206 166.375 270.8125 C169.85161515 277.05818387 173.49091881 283.19468653 177.1875 289.3125 C180.69864671 295.12610907 184.13438257 300.9462861 187.3359375 306.9375 C194.15127229 319.48027576 201.38767339 331.79940925 208.81494141 343.98803711 C211.81362335 348.93077536 214.62669835 353.94714202 217.37548828 359.03271484 C220.40905255 364.5737338 223.58727368 370.03202523 226.75 375.5 C227.42848035 376.67702862 228.1068662 377.85411171 228.78515625 379.03125 C232.2648863 385.09440086 232.2648863 385.09440086 236 391 C236.4516129 397.32258065 236.4516129 397.32258065 234 401 C226.85102888 400.73079188 221.81676033 397.33604709 215.8125 393.6875 C214.7603833 393.06101562 213.7082666 392.43453125 212.62426758 391.7890625 C209.40898341 389.87108023 206.20361144 387.93740319 203 386 C201.12273298 384.8705332 199.24514726 383.74159587 197.3671875 382.61328125 C194.79899462 381.06993731 192.23103314 379.52624545 189.66503906 377.97924805 C184.87421519 375.09746545 180.047125 372.32963159 175.1171875 369.69140625 C170.44563546 367.15659167 165.81456174 364.55247004 161.1875 361.9375 C160.2787915 361.43025391 159.37008301 360.92300781 158.43383789 360.40039062 C145.62626026 353.13522502 145.62626026 353.13522502 142.375 346.5 C141.87742187 345.53449219 141.37984375 344.56898438 140.8671875 343.57421875 C140.43744629 342.73963135 140.43744629 342.73963135 139.99902344 341.88818359 C137.92918961 337.97613696 135.70189278 334.15121379 133.5 330.3125 C132.98888672 329.41877686 132.47777344 328.52505371 131.95117188 327.60424805 C128.55401675 321.6752998 125.1190665 315.76924417 121.66625977 309.87255859 C118.76763859 304.92076388 115.88129158 299.96189454 113 295 C112.20408447 293.63246582 112.20408447 293.63246582 111.39208984 292.23730469 C109.93729853 289.72713092 108.49730179 287.20913957 107.0625 284.6875 C106.63114746 283.94669189 106.19979492 283.20588379 105.75537109 282.44262695 C104.75762051 280.67078855 103.86757308 278.83908524 103 277 C104.48327488 272.55017536 107.74800942 271.72939839 111.75 269.59765625 C114.07868752 268.23149606 114.07868752 268.23149606 114.79516602 266.21362305 C115.08036549 263.1314971 114.06373717 261.65477896 112.52734375 258.984375 C111.96426514 257.99228027 111.40118652 257.00018555 110.82104492 255.97802734 C110.1994751 254.91277832 109.57790527 253.8475293 108.9375 252.75 C108.30497314 251.64479004 107.67244629 250.53958008 107.02075195 249.40087891 C105.35627693 246.50014259 103.68114551 243.60625341 101.99829102 240.71618652 C100.41477594 237.99392699 98.84126994 235.26588267 97.265625 232.5390625 C91.89294242 223.26862265 86.44787291 214.04477942 80.90454102 204.87548828 C78.394951 200.70681651 76.04743034 196.47169526 73.75 192.18359375 C69.64182262 184.71001212 65.2933238 177.36833388 61 170 C57.20807139 170.50101977 55.16780656 170.88698742 51.9375 173.0625 C48.76365558 175.15588674 47.68267137 175.55500228 44 175 C42.515625 173.33984375 42.515625 173.33984375 41.25 170.9375 C40.74984375 170.02742187 40.2496875 169.11734375 39.734375 168.1796875 C39.16203125 167.13039062 38.5896875 166.08109375 38 165 C36.90592808 163.15515433 35.79189575 161.32337688 34.67553711 159.49194336 C31.2212656 153.82234674 27.9194868 148.09908624 24.77734375 142.25 C18.12003596 130.07663718 11.10342674 118.09160126 4.03417969 106.15380859 C-0.12547696 99.12679897 -0.12547696 99.12679897 -0.12025452 95.00106812 C-0.12162918 94.16531754 -0.12300385 93.32956696 -0.12442017 92.4684906 C-0.12082489 91.54995804 -0.11722961 90.63142548 -0.11352539 89.68505859 C-0.11367142 88.71916306 -0.11381744 87.75326752 -0.1139679 86.75810242 C-0.11326937 83.55485819 -0.10547978 80.35167161 -0.09765625 77.1484375 C-0.09579186 74.93169181 -0.09436805 72.71494571 -0.09336853 70.49819946 C-0.08954504 64.65546537 -0.07971617 58.81275603 -0.06866455 52.97003174 C-0.05844682 47.01127456 -0.05387013 41.0525134 -0.04882812 35.09375 C-0.03809377 23.39582244 -0.02101935 11.69791328 0 0 Z "
        fill="#FFF" transform="translate(262,33)" />
    <path
        d="M0 0 C1.18642336 -0.01147664 2.37284671 -0.02295328 3.59522229 -0.0347777 C6.85776379 -0.06021473 10.11899448 -0.05913193 13.38156807 -0.04623592 C16.91215386 -0.03879255 20.44250799 -0.06592803 23.9730072 -0.08834839 C30.87849251 -0.12648454 37.78362729 -0.13198355 44.68920019 -0.1249476 C50.30716571 -0.11958469 55.92502539 -0.12487553 61.54297829 -0.13762093 C62.34449845 -0.13940649 63.14601862 -0.14119206 63.97182727 -0.14303173 C65.60048571 -0.14666725 67.22914414 -0.15030966 68.85780255 -0.15395886 C84.11277517 -0.18654647 99.36754858 -0.18011729 114.62253235 -0.16180433 C128.54987337 -0.14630818 142.47658417 -0.18003895 156.40380057 -0.23709898 C170.7328428 -0.29535126 185.06158749 -0.31998133 199.3907488 -0.30872923 C207.42401167 -0.30300963 215.45673867 -0.31029225 223.4899044 -0.35287285 C230.33069154 -0.3887684 237.1706132 -0.39266077 244.01141336 -0.35650235 C247.49546785 -0.33893832 250.9779437 -0.33523897 254.46188927 -0.37150955 C270.33855396 -0.50382348 281.78456938 0.19090126 294.73738098 9.78208923 C296.34425016 10.74411435 297.96076095 11.69078715 299.59675598 12.60240173 C300.89454397 13.36908757 302.19145505 14.13726015 303.48738098 14.90708923 C304.90917195 15.74707524 306.33104741 16.58691824 307.75300598 17.42662048 C308.4278302 17.82574646 309.10265442 18.22487244 309.79792786 18.63609314 C316.58660346 22.64742789 323.39492649 26.61190866 330.29597473 30.42662048 C341.96833083 36.90711259 353.37798828 43.77021419 364.73738098 50.78208923 C363.11238098 56.53208923 363.11238098 56.53208923 359.73738098 58.78208923 C359.40738098 59.77208923 359.07738098 60.76208923 358.73738098 61.78208923 C344.31665479 61.87548779 329.89597541 61.94578049 315.47500896 61.98933792 C308.77923433 62.01024008 302.08366891 62.03810935 295.38801575 62.08384705 C288.93006197 62.12721033 282.47230357 62.15120653 276.01421547 62.16159821 C273.54655187 62.16900665 271.07889933 62.18347297 268.61131859 62.20500946 C265.16311143 62.23391608 261.71571849 62.23805047 258.26741028 62.2361908 C257.24026413 62.2505719 256.21311798 62.264953 255.15484619 62.2797699 C254.2167511 62.27427124 253.27865601 62.26877258 252.31213379 62.2631073 C251.0884536 62.26863806 251.0884536 62.26863806 249.8400526 62.27428055 C246.96695053 61.60174763 246.31705033 60.1928215 244.73738098 57.78208923 C242.57856435 56.32844315 242.57856435 56.32844315 240.04988098 55.09458923 C235.10539677 52.5068218 230.22200616 49.83721617 225.36238098 47.09458923 C224.68473694 46.7140741 224.0070929 46.33355896 223.30891418 45.94151306 C217.9248638 42.91152511 217.9248638 42.91152511 215.50582695 41.24145126 C212.27227314 39.53691171 210.22006246 39.39098637 206.58042908 39.36076355 C205.3415242 39.34363312 204.10261932 39.32650269 202.82617188 39.30885315 C201.46080108 39.30511743 200.09542926 39.30174206 198.73005676 39.2986908 C197.28568388 39.28479522 195.84132193 39.26971975 194.39697266 39.2535553 C190.47696914 39.21426094 186.55711964 39.19486116 182.63695002 39.18152332 C180.18193042 39.17271149 177.72695224 39.16039293 175.27195358 39.1470108 C167.57418685 39.10599091 159.87651559 39.07699518 152.17864716 39.06540513 C143.32452065 39.05199789 134.47179168 38.99951942 125.6180898 38.91240335 C118.75578738 38.84725365 111.89387501 38.8172762 105.03126705 38.81328177 C100.94186325 38.81015631 96.85377313 38.79284964 92.76469803 38.73882294 C69.14533233 38.05764328 69.14533233 38.05764328 48.73738098 48.78208923 C46.76258297 49.93072183 44.76561181 51.04317888 42.73738098 52.09458923 C39.68112774 53.72975304 36.66102201 55.39728949 33.67488098 57.15708923 C30.73738098 58.78208923 30.73738098 58.78208923 28.73738098 58.78208923 C28.73738098 59.77208923 28.73738098 60.76208923 28.73738098 61.78208923 C-11.52261902 61.78208923 -51.78261902 61.78208923 -93.26261902 61.78208923 C-97.76261902 53.90708923 -97.76261902 53.90708923 -98.26261902 49.78208923 C-97.43697449 49.34122986 -97.43697449 49.34122986 -96.59465027 48.89146423 C-82.91368838 41.51010805 -69.46422208 33.69926012 -56.08195496 25.79185486 C-49.94318558 22.17000962 -43.77954957 18.5916895 -37.60792542 15.02613831 C-35.94128853 14.06310122 -34.275403 13.09876421 -32.60954285 12.13438416 C-31.55919861 11.52828308 -30.50885437 10.92218201 -29.42668152 10.29771423 C-28.50322937 9.76436462 -27.57977722 9.23101501 -26.62834167 8.6815033 C-25.5176532 8.05469666 -24.40696472 7.42789001 -23.26261902 6.78208923 C-22.50235639 6.2968261 -21.74209376 5.81156298 -20.95879287 5.3115949 C-13.80390412 0.977285 -8.2824152 -0.0862066 0 0 Z "
        fill="#FFFFFF" transform="translate(117.26261901855469,405.21791076660156)" />
</svg>